<svg width="360" height="800" viewBox="0 0 360 800" fill="none" xmlns="http://www.w3.org/2000/svg">
<g clip-path="url(#clip0_15_3)">
<rect width="360" height="800" fill="white"/>
<path d="M429.907 607.751V560.817L341.284 652.964" stroke="#D9F99D" stroke-width="4" stroke-linecap="round" stroke-linejoin="round"/>
<path d="M348.657 825.056C373.587 825.056 393.796 804.043 393.796 778.122C393.796 752.201 373.587 731.188 348.657 731.188C323.728 731.188 303.518 752.201 303.518 778.122C303.518 804.043 323.728 825.056 348.657 825.056Z" stroke="#D9F99D" stroke-width="4" stroke-linecap="round" stroke-linejoin="round"/>
<path d="M220.914 692.233C245.843 692.233 266.053 671.22 266.053 645.299C266.053 619.378 245.843 598.365 220.914 598.365C195.984 598.365 175.775 619.378 175.775 645.299C175.775 671.22 195.984 692.233 220.914 692.233Z" stroke="#D9F99D" stroke-width="4" stroke-linecap="round" stroke-linejoin="round"/>
<path d="M284.71 758.722C309.64 758.722 329.849 737.709 329.849 711.788C329.849 685.867 309.64 664.854 284.71 664.854C259.781 664.854 239.571 685.867 239.571 711.788C239.571 737.709 259.781 758.722 284.71 758.722Z" stroke="#D9F99D" stroke-width="4" stroke-linecap="round" stroke-linejoin="round"/>
<path d="M308.183 667.983C333.112 667.983 353.321 646.97 353.321 621.049C353.321 595.128 333.112 574.115 308.183 574.115C283.253 574.115 263.044 595.128 263.044 621.049C263.044 646.97 283.253 667.983 308.183 667.983Z" stroke="#D9F99D" stroke-width="4" stroke-linecap="round" stroke-linejoin="round"/>
<path d="M371.979 734.317C396.909 734.317 417.118 713.304 417.118 687.383C417.118 661.462 396.909 640.449 371.979 640.449C347.049 640.449 326.84 661.462 326.84 687.383C326.84 713.304 347.049 734.317 371.979 734.317Z" stroke="#D9F99D" stroke-width="4" stroke-linecap="round" stroke-linejoin="round"/>
<path d="M197.592 782.972C222.522 782.972 242.731 761.959 242.731 736.038C242.731 710.117 222.522 689.104 197.592 689.104C172.662 689.104 152.453 710.117 152.453 736.038C152.453 761.959 172.662 782.972 197.592 782.972Z" stroke="#D9F99D" stroke-width="4" stroke-linecap="round" stroke-linejoin="round"/>
<path d="M261.388 849.305C286.318 849.305 306.527 828.292 306.527 802.371C306.527 776.45 286.318 755.437 261.388 755.437C236.459 755.437 216.249 776.45 216.249 802.371C216.249 828.292 236.459 849.305 261.388 849.305Z" stroke="#D9F99D" stroke-width="4" stroke-linecap="round" stroke-linejoin="round"/>
<path d="M174.12 873.711C199.049 873.711 219.259 852.698 219.259 826.777C219.259 800.856 199.049 779.843 174.12 779.843C149.19 779.843 128.981 800.856 128.981 826.777C128.981 852.698 149.19 873.711 174.12 873.711Z" stroke="#D9F99D" stroke-width="4" stroke-linecap="round" stroke-linejoin="round"/>
<path d="M401.019 585.223V538.289L312.396 630.436" stroke="#262626" stroke-width="4" stroke-linecap="round" stroke-linejoin="round"/>
<path d="M319.769 802.528C344.699 802.528 364.908 781.515 364.908 755.594C364.908 729.673 344.699 708.66 319.769 708.66C294.84 708.66 274.63 729.673 274.63 755.594C274.63 781.515 294.84 802.528 319.769 802.528Z" stroke="#262626" stroke-width="4" stroke-linecap="round" stroke-linejoin="round"/>
<path d="M192.026 669.704C216.955 669.704 237.165 648.691 237.165 622.771C237.165 596.85 216.955 575.837 192.026 575.837C167.096 575.837 146.887 596.85 146.887 622.771C146.887 648.691 167.096 669.704 192.026 669.704Z" stroke="#262626" stroke-width="4" stroke-linecap="round" stroke-linejoin="round"/>
<path d="M255.822 736.194C280.752 736.194 300.961 715.181 300.961 689.26C300.961 663.339 280.752 642.326 255.822 642.326C230.893 642.326 210.683 663.339 210.683 689.26C210.683 715.181 230.893 736.194 255.822 736.194Z" stroke="#262626" stroke-width="4" stroke-linecap="round" stroke-linejoin="round"/>
<path d="M279.294 645.455C304.224 645.455 324.433 624.442 324.433 598.521C324.433 572.6 304.224 551.587 279.294 551.587C254.365 551.587 234.155 572.6 234.155 598.521C234.155 624.442 254.365 645.455 279.294 645.455Z" stroke="#262626" stroke-width="4" stroke-linecap="round" stroke-linejoin="round"/>
<path d="M343.091 711.789C368.02 711.789 388.23 690.776 388.23 664.855C388.23 638.934 368.02 617.921 343.091 617.921C318.161 617.921 297.952 638.934 297.952 664.855C297.952 690.776 318.161 711.789 343.091 711.789Z" stroke="#262626" stroke-width="4" stroke-linecap="round" stroke-linejoin="round"/>
<path d="M168.704 760.444C193.634 760.444 213.843 739.43 213.843 713.51C213.843 687.589 193.634 666.576 168.704 666.576C143.774 666.576 123.565 687.589 123.565 713.51C123.565 739.43 143.774 760.444 168.704 760.444Z" stroke="#262626" stroke-width="4" stroke-linecap="round" stroke-linejoin="round"/>
<path d="M232.5 826.777C257.43 826.777 277.639 805.764 277.639 779.843C277.639 753.922 257.43 732.909 232.5 732.909C207.571 732.909 187.361 753.922 187.361 779.843C187.361 805.764 207.571 826.777 232.5 826.777Z" stroke="#262626" stroke-width="4" stroke-linecap="round" stroke-linejoin="round"/>
<path d="M145.232 851.183C170.161 851.183 190.371 830.17 190.371 804.249C190.371 778.328 170.161 757.315 145.232 757.315C120.302 757.315 100.093 778.328 100.093 804.249C100.093 830.17 120.302 851.183 145.232 851.183Z" stroke="#262626" stroke-width="4" stroke-linecap="round" stroke-linejoin="round"/>
<path d="M168.295 396.185L169.74 391.717H170.663L168.764 397H168.158L168.295 396.185ZM167.089 391.717L168.578 396.209L168.681 397H168.075L166.161 391.717H167.089ZM174.403 389.852V397H173.5V390.979L171.679 391.644V390.828L174.262 389.852H174.403ZM177.172 396.521C177.172 396.368 177.219 396.24 177.313 396.136C177.411 396.028 177.551 395.975 177.733 395.975C177.916 395.975 178.054 396.028 178.148 396.136C178.246 396.24 178.295 396.368 178.295 396.521C178.295 396.671 178.246 396.798 178.148 396.902C178.054 397.007 177.916 397.059 177.733 397.059C177.551 397.059 177.411 397.007 177.313 396.902C177.219 396.798 177.172 396.671 177.172 396.521ZM184.159 392.879V393.963C184.159 394.546 184.107 395.037 184.003 395.438C183.899 395.838 183.749 396.16 183.554 396.404C183.358 396.648 183.122 396.826 182.846 396.937C182.572 397.044 182.263 397.098 181.918 397.098C181.645 397.098 181.392 397.063 181.161 396.995C180.93 396.927 180.722 396.818 180.536 396.668C180.354 396.515 180.198 396.316 180.067 396.072C179.937 395.828 179.838 395.532 179.77 395.184C179.701 394.835 179.667 394.428 179.667 393.963V392.879C179.667 392.296 179.719 391.808 179.823 391.414C179.931 391.02 180.082 390.704 180.277 390.467C180.473 390.226 180.707 390.053 180.98 389.949C181.257 389.845 181.566 389.793 181.908 389.793C182.185 389.793 182.439 389.827 182.67 389.896C182.904 389.961 183.113 390.066 183.295 390.213C183.477 390.356 183.632 390.548 183.759 390.789C183.889 391.027 183.988 391.318 184.057 391.663C184.125 392.008 184.159 392.413 184.159 392.879ZM183.251 394.109V392.728C183.251 392.409 183.231 392.129 183.192 391.888C183.157 391.644 183.103 391.435 183.031 391.263C182.96 391.09 182.868 390.95 182.758 390.843C182.65 390.735 182.525 390.657 182.382 390.608C182.242 390.556 182.084 390.53 181.908 390.53C181.693 390.53 181.503 390.571 181.337 390.652C181.171 390.73 181.031 390.856 180.917 391.028C180.806 391.201 180.722 391.427 180.663 391.707C180.604 391.987 180.575 392.327 180.575 392.728V394.109C180.575 394.428 180.593 394.71 180.629 394.954C180.668 395.198 180.725 395.41 180.8 395.589C180.875 395.765 180.966 395.91 181.073 396.023C181.181 396.137 181.304 396.222 181.444 396.277C181.588 396.329 181.745 396.355 181.918 396.355C182.139 396.355 182.333 396.313 182.499 396.229C182.665 396.144 182.803 396.012 182.914 395.833C183.028 395.651 183.113 395.418 183.168 395.135C183.223 394.848 183.251 394.507 183.251 394.109ZM185.434 396.521C185.434 396.368 185.481 396.24 185.575 396.136C185.673 396.028 185.813 395.975 185.995 395.975C186.177 395.975 186.316 396.028 186.41 396.136C186.508 396.24 186.557 396.368 186.557 396.521C186.557 396.671 186.508 396.798 186.41 396.902C186.316 397.007 186.177 397.059 185.995 397.059C185.813 397.059 185.673 397.007 185.575 396.902C185.481 396.798 185.434 396.671 185.434 396.521ZM192.421 392.879V393.963C192.421 394.546 192.369 395.037 192.265 395.438C192.16 395.838 192.011 396.16 191.815 396.404C191.62 396.648 191.384 396.826 191.107 396.937C190.834 397.044 190.525 397.098 190.18 397.098C189.906 397.098 189.654 397.063 189.423 396.995C189.192 396.927 188.983 396.818 188.798 396.668C188.616 396.515 188.459 396.316 188.329 396.072C188.199 395.828 188.1 395.532 188.031 395.184C187.963 394.835 187.929 394.428 187.929 393.963V392.879C187.929 392.296 187.981 391.808 188.085 391.414C188.192 391.02 188.344 390.704 188.539 390.467C188.734 390.226 188.969 390.053 189.242 389.949C189.519 389.845 189.828 389.793 190.17 389.793C190.447 389.793 190.701 389.827 190.932 389.896C191.166 389.961 191.374 390.066 191.557 390.213C191.739 390.356 191.894 390.548 192.021 390.789C192.151 391.027 192.25 391.318 192.318 391.663C192.387 392.008 192.421 392.413 192.421 392.879ZM191.513 394.109V392.728C191.513 392.409 191.493 392.129 191.454 391.888C191.418 391.644 191.365 391.435 191.293 391.263C191.221 391.09 191.13 390.95 191.02 390.843C190.912 390.735 190.787 390.657 190.644 390.608C190.504 390.556 190.346 390.53 190.17 390.53C189.955 390.53 189.765 390.571 189.599 390.652C189.433 390.73 189.293 390.856 189.179 391.028C189.068 391.201 188.983 391.427 188.925 391.707C188.866 391.987 188.837 392.327 188.837 392.728V394.109C188.837 394.428 188.855 394.71 188.891 394.954C188.93 395.198 188.987 395.41 189.062 395.589C189.136 395.765 189.228 395.91 189.335 396.023C189.442 396.137 189.566 396.222 189.706 396.277C189.849 396.329 190.007 396.355 190.18 396.355C190.401 396.355 190.595 396.313 190.761 396.229C190.927 396.144 191.065 396.012 191.176 395.833C191.29 395.651 191.374 395.418 191.43 395.135C191.485 394.848 191.513 394.507 191.513 394.109Z" fill="#525252"/>
<path d="M124.843 373.609C124.843 373.111 124.765 372.672 124.608 372.291C124.462 371.9 124.198 371.549 123.817 371.236C123.446 370.924 122.929 370.626 122.265 370.343C121.61 370.06 120.78 369.771 119.774 369.479C118.72 369.166 117.768 368.819 116.918 368.438C116.068 368.048 115.341 367.604 114.735 367.105C114.13 366.607 113.666 366.036 113.344 365.392C113.021 364.747 112.86 364.01 112.86 363.18C112.86 362.35 113.031 361.583 113.373 360.88C113.715 360.177 114.203 359.566 114.838 359.049C115.482 358.521 116.249 358.111 117.138 357.818C118.026 357.525 119.018 357.379 120.111 357.379C121.713 357.379 123.07 357.687 124.184 358.302C125.307 358.907 126.161 359.703 126.747 360.689C127.333 361.666 127.626 362.711 127.626 363.824H124.813C124.813 363.023 124.643 362.315 124.301 361.7C123.959 361.075 123.441 360.587 122.748 360.235C122.055 359.874 121.176 359.693 120.111 359.693C119.105 359.693 118.275 359.845 117.621 360.147C116.967 360.45 116.479 360.86 116.156 361.378C115.844 361.896 115.688 362.486 115.688 363.15C115.688 363.6 115.78 364.01 115.966 364.381C116.161 364.742 116.459 365.079 116.859 365.392C117.27 365.704 117.787 365.992 118.412 366.256C119.047 366.52 119.804 366.773 120.683 367.018C121.894 367.359 122.938 367.74 123.817 368.16C124.696 368.58 125.419 369.054 125.985 369.581C126.562 370.099 126.986 370.689 127.26 371.354C127.543 372.008 127.685 372.75 127.685 373.58C127.685 374.449 127.509 375.235 127.157 375.938C126.806 376.642 126.303 377.242 125.648 377.74C124.994 378.238 124.208 378.624 123.29 378.897C122.382 379.161 121.366 379.293 120.243 379.293C119.257 379.293 118.285 379.156 117.328 378.883C116.381 378.609 115.517 378.199 114.735 377.652C113.964 377.105 113.344 376.432 112.875 375.631C112.416 374.82 112.187 373.883 112.187 372.818H114.999C114.999 373.551 115.141 374.181 115.424 374.708C115.707 375.226 116.093 375.655 116.581 375.997C117.079 376.339 117.641 376.593 118.266 376.759C118.9 376.915 119.56 376.993 120.243 376.993C121.229 376.993 122.064 376.856 122.748 376.583C123.432 376.31 123.949 375.919 124.301 375.411C124.662 374.903 124.843 374.303 124.843 373.609ZM137.855 379.293C136.752 379.293 135.751 379.107 134.852 378.736C133.963 378.355 133.197 377.823 132.552 377.14C131.918 376.456 131.429 375.646 131.087 374.708C130.746 373.771 130.575 372.745 130.575 371.632V371.017C130.575 369.728 130.765 368.58 131.146 367.574C131.527 366.559 132.045 365.699 132.699 364.996C133.353 364.293 134.095 363.761 134.925 363.399C135.755 363.038 136.615 362.857 137.504 362.857C138.636 362.857 139.613 363.053 140.433 363.443C141.263 363.834 141.942 364.381 142.469 365.084C142.997 365.777 143.387 366.598 143.641 367.545C143.895 368.482 144.022 369.508 144.022 370.621V371.837H132.186V369.625H141.312V369.42C141.273 368.717 141.127 368.033 140.873 367.369C140.629 366.705 140.238 366.158 139.701 365.729C139.164 365.299 138.431 365.084 137.504 365.084C136.888 365.084 136.322 365.216 135.804 365.479C135.287 365.733 134.842 366.114 134.471 366.622C134.1 367.13 133.812 367.75 133.607 368.482C133.402 369.215 133.299 370.06 133.299 371.017V371.632C133.299 372.384 133.402 373.092 133.607 373.756C133.822 374.41 134.129 374.986 134.53 375.484C134.94 375.982 135.433 376.373 136.009 376.656C136.595 376.939 137.259 377.081 138.002 377.081C138.959 377.081 139.769 376.886 140.433 376.495C141.097 376.104 141.678 375.582 142.176 374.928L143.817 376.231C143.475 376.749 143.041 377.242 142.513 377.711C141.986 378.18 141.337 378.561 140.565 378.854C139.803 379.146 138.9 379.293 137.855 379.293ZM156.932 376.29V368.131C156.932 367.506 156.805 366.964 156.551 366.505C156.307 366.036 155.936 365.675 155.438 365.421C154.94 365.167 154.324 365.04 153.592 365.04C152.908 365.04 152.308 365.157 151.79 365.392C151.282 365.626 150.882 365.934 150.589 366.314C150.306 366.695 150.164 367.105 150.164 367.545H147.454C147.454 366.979 147.601 366.417 147.894 365.86C148.187 365.304 148.607 364.801 149.154 364.352C149.71 363.893 150.374 363.531 151.146 363.268C151.927 362.994 152.796 362.857 153.753 362.857C154.905 362.857 155.921 363.053 156.8 363.443C157.689 363.834 158.382 364.425 158.88 365.216C159.388 365.997 159.642 366.979 159.642 368.16V375.543C159.642 376.07 159.686 376.632 159.774 377.228C159.871 377.823 160.013 378.336 160.198 378.766V379H157.371C157.235 378.688 157.127 378.272 157.049 377.755C156.971 377.228 156.932 376.739 156.932 376.29ZM157.401 369.391L157.43 371.295H154.691C153.919 371.295 153.231 371.358 152.625 371.485C152.02 371.603 151.512 371.783 151.102 372.027C150.692 372.271 150.379 372.579 150.164 372.95C149.949 373.312 149.842 373.736 149.842 374.225C149.842 374.723 149.954 375.177 150.179 375.587C150.404 375.997 150.74 376.324 151.19 376.568C151.649 376.803 152.21 376.92 152.874 376.92C153.704 376.92 154.437 376.744 155.071 376.393C155.706 376.041 156.209 375.611 156.58 375.104C156.961 374.596 157.166 374.103 157.196 373.624L158.353 374.928C158.284 375.338 158.099 375.792 157.796 376.29C157.493 376.788 157.088 377.267 156.58 377.726C156.082 378.175 155.487 378.551 154.793 378.854C154.11 379.146 153.338 379.293 152.479 379.293C151.404 379.293 150.462 379.083 149.652 378.663C148.851 378.243 148.226 377.682 147.777 376.979C147.337 376.266 147.117 375.47 147.117 374.591C147.117 373.741 147.283 372.994 147.615 372.35C147.947 371.695 148.426 371.153 149.051 370.724C149.676 370.284 150.428 369.952 151.307 369.728C152.186 369.503 153.167 369.391 154.251 369.391H157.401ZM173.533 374.796C173.533 374.405 173.445 374.044 173.269 373.712C173.103 373.37 172.757 373.062 172.229 372.789C171.712 372.506 170.93 372.262 169.886 372.057C169.007 371.871 168.211 371.651 167.498 371.397C166.795 371.144 166.194 370.836 165.696 370.475C165.208 370.113 164.832 369.688 164.568 369.2C164.304 368.712 164.173 368.141 164.173 367.486C164.173 366.861 164.309 366.271 164.583 365.714C164.866 365.157 165.262 364.664 165.769 364.234C166.287 363.805 166.907 363.468 167.63 363.224C168.352 362.979 169.158 362.857 170.047 362.857C171.316 362.857 172.4 363.082 173.299 363.531C174.197 363.98 174.886 364.581 175.364 365.333C175.843 366.075 176.082 366.9 176.082 367.809H173.372C173.372 367.369 173.24 366.944 172.976 366.534C172.722 366.114 172.346 365.768 171.848 365.494C171.36 365.221 170.76 365.084 170.047 365.084C169.295 365.084 168.684 365.201 168.216 365.436C167.757 365.66 167.42 365.948 167.205 366.3C167 366.651 166.897 367.022 166.897 367.413C166.897 367.706 166.946 367.97 167.044 368.204C167.151 368.429 167.337 368.639 167.6 368.834C167.864 369.02 168.235 369.195 168.714 369.361C169.192 369.527 169.803 369.693 170.545 369.859C171.844 370.152 172.913 370.504 173.753 370.914C174.593 371.324 175.218 371.827 175.628 372.423C176.038 373.019 176.243 373.741 176.243 374.591C176.243 375.284 176.096 375.919 175.804 376.495C175.52 377.071 175.105 377.569 174.558 377.989C174.021 378.399 173.377 378.722 172.625 378.956C171.883 379.181 171.048 379.293 170.12 379.293C168.723 379.293 167.542 379.044 166.575 378.546C165.608 378.048 164.876 377.403 164.378 376.612C163.88 375.821 163.631 374.986 163.631 374.107H166.355C166.394 374.85 166.609 375.44 167 375.88C167.39 376.31 167.869 376.617 168.435 376.803C169.002 376.979 169.563 377.066 170.12 377.066C170.862 377.066 171.482 376.969 171.98 376.773C172.488 376.578 172.874 376.31 173.138 375.968C173.401 375.626 173.533 375.235 173.533 374.796ZM179.485 371.251V370.914C179.485 369.771 179.651 368.712 179.983 367.735C180.315 366.749 180.793 365.895 181.418 365.172C182.043 364.439 182.8 363.873 183.689 363.473C184.578 363.062 185.574 362.857 186.677 362.857C187.79 362.857 188.791 363.062 189.68 363.473C190.579 363.873 191.34 364.439 191.965 365.172C192.6 365.895 193.083 366.749 193.415 367.735C193.747 368.712 193.913 369.771 193.913 370.914V371.251C193.913 372.394 193.747 373.453 193.415 374.43C193.083 375.406 192.6 376.261 191.965 376.993C191.34 377.716 190.583 378.282 189.695 378.692C188.816 379.093 187.82 379.293 186.706 379.293C185.593 379.293 184.592 379.093 183.704 378.692C182.815 378.282 182.053 377.716 181.418 376.993C180.793 376.261 180.315 375.406 179.983 374.43C179.651 373.453 179.485 372.394 179.485 371.251ZM182.195 370.914V371.251C182.195 372.042 182.287 372.789 182.473 373.492C182.659 374.186 182.937 374.801 183.308 375.338C183.689 375.875 184.162 376.3 184.729 376.612C185.295 376.915 185.954 377.066 186.706 377.066C187.449 377.066 188.098 376.915 188.655 376.612C189.221 376.3 189.69 375.875 190.061 375.338C190.432 374.801 190.71 374.186 190.896 373.492C191.091 372.789 191.189 372.042 191.189 371.251V370.914C191.189 370.133 191.091 369.396 190.896 368.702C190.71 367.999 190.427 367.379 190.046 366.842C189.675 366.295 189.206 365.865 188.64 365.553C188.083 365.24 187.429 365.084 186.677 365.084C185.935 365.084 185.281 365.24 184.714 365.553C184.158 365.865 183.689 366.295 183.308 366.842C182.937 367.379 182.659 367.999 182.473 368.702C182.287 369.396 182.195 370.133 182.195 370.914ZM200.422 366.534V379H197.712V363.15H200.275L200.422 366.534ZM199.777 370.475L198.649 370.431C198.659 369.347 198.82 368.346 199.133 367.428C199.445 366.5 199.885 365.694 200.451 365.011C201.018 364.327 201.691 363.8 202.473 363.429C203.264 363.048 204.138 362.857 205.095 362.857C205.876 362.857 206.579 362.965 207.204 363.18C207.829 363.385 208.361 363.717 208.801 364.176C209.25 364.635 209.592 365.23 209.826 365.963C210.061 366.686 210.178 367.569 210.178 368.614V379H207.453V368.585C207.453 367.755 207.331 367.091 207.087 366.593C206.843 366.085 206.486 365.719 206.018 365.494C205.549 365.26 204.973 365.143 204.289 365.143C203.615 365.143 203 365.284 202.443 365.567C201.896 365.851 201.423 366.241 201.022 366.739C200.632 367.237 200.324 367.809 200.1 368.453C199.885 369.088 199.777 369.762 199.777 370.475ZM217.638 363.15V379H214.914V363.15H217.638ZM214.709 358.946C214.709 358.507 214.84 358.136 215.104 357.833C215.378 357.53 215.778 357.379 216.305 357.379C216.823 357.379 217.218 357.53 217.492 357.833C217.775 358.136 217.917 358.507 217.917 358.946C217.917 359.366 217.775 359.728 217.492 360.03C217.218 360.323 216.823 360.47 216.305 360.47C215.778 360.47 215.378 360.323 215.104 360.03C214.84 359.728 214.709 359.366 214.709 358.946ZM231.617 374.796C231.617 374.405 231.529 374.044 231.354 373.712C231.188 373.37 230.841 373.062 230.314 372.789C229.796 372.506 229.015 372.262 227.97 372.057C227.091 371.871 226.295 371.651 225.582 371.397C224.879 371.144 224.279 370.836 223.78 370.475C223.292 370.113 222.916 369.688 222.653 369.2C222.389 368.712 222.257 368.141 222.257 367.486C222.257 366.861 222.394 366.271 222.667 365.714C222.95 365.157 223.346 364.664 223.854 364.234C224.371 363.805 224.991 363.468 225.714 363.224C226.437 362.979 227.242 362.857 228.131 362.857C229.401 362.857 230.485 363.082 231.383 363.531C232.281 363.98 232.97 364.581 233.448 365.333C233.927 366.075 234.166 366.9 234.166 367.809H231.456C231.456 367.369 231.324 366.944 231.061 366.534C230.807 366.114 230.431 365.768 229.933 365.494C229.445 365.221 228.844 365.084 228.131 365.084C227.379 365.084 226.769 365.201 226.3 365.436C225.841 365.66 225.504 365.948 225.289 366.3C225.084 366.651 224.982 367.022 224.982 367.413C224.982 367.706 225.03 367.97 225.128 368.204C225.236 368.429 225.421 368.639 225.685 368.834C225.948 369.02 226.32 369.195 226.798 369.361C227.277 369.527 227.887 369.693 228.629 369.859C229.928 370.152 230.997 370.504 231.837 370.914C232.677 371.324 233.302 371.827 233.712 372.423C234.122 373.019 234.327 373.741 234.327 374.591C234.327 375.284 234.181 375.919 233.888 376.495C233.605 377.071 233.19 377.569 232.643 377.989C232.106 378.399 231.461 378.722 230.709 378.956C229.967 379.181 229.132 379.293 228.204 379.293C226.808 379.293 225.626 379.044 224.659 378.546C223.693 378.048 222.96 377.403 222.462 376.612C221.964 375.821 221.715 374.986 221.715 374.107H224.44C224.479 374.85 224.694 375.44 225.084 375.88C225.475 376.31 225.953 376.617 226.52 376.803C227.086 376.979 227.648 377.066 228.204 377.066C228.946 377.066 229.567 376.969 230.065 376.773C230.572 376.578 230.958 376.31 231.222 375.968C231.486 375.626 231.617 375.235 231.617 374.796ZM244.923 363.15V365.23H236.353V363.15H244.923ZM239.254 359.298H241.964V375.074C241.964 375.611 242.047 376.017 242.213 376.29C242.379 376.563 242.594 376.744 242.857 376.832C243.121 376.92 243.404 376.964 243.707 376.964C243.931 376.964 244.166 376.944 244.41 376.905C244.664 376.856 244.854 376.817 244.981 376.788L244.996 379C244.781 379.068 244.498 379.132 244.146 379.19C243.804 379.259 243.389 379.293 242.901 379.293C242.237 379.293 241.627 379.161 241.07 378.897C240.513 378.634 240.069 378.194 239.737 377.579C239.415 376.954 239.254 376.114 239.254 375.06V359.298Z" fill="#262626"/>
<path d="M200.833 304.417V298.167L188.562 310.437" stroke="#262626" stroke-width="2" stroke-linecap="round" stroke-linejoin="round"/>
<path d="M189.583 333.354C193.035 333.354 195.833 330.556 195.833 327.104C195.833 323.652 193.035 320.854 189.583 320.854C186.132 320.854 183.333 323.652 183.333 327.104C183.333 330.556 186.132 333.354 189.583 333.354Z" stroke="#262626" stroke-width="2" stroke-linecap="round" stroke-linejoin="round"/>
<path d="M171.896 315.667C175.348 315.667 178.146 312.868 178.146 309.417C178.146 305.965 175.348 303.167 171.896 303.167C168.444 303.167 165.646 305.965 165.646 309.417C165.646 312.868 168.444 315.667 171.896 315.667Z" stroke="#262626" stroke-width="2" stroke-linecap="round" stroke-linejoin="round"/>
<path d="M180.729 324.521C184.181 324.521 186.979 321.723 186.979 318.271C186.979 314.819 184.181 312.021 180.729 312.021C177.277 312.021 174.479 314.819 174.479 318.271C174.479 321.723 177.277 324.521 180.729 324.521Z" stroke="#262626" stroke-width="2" stroke-linecap="round" stroke-linejoin="round"/>
<path d="M183.979 312.438C187.431 312.438 190.229 309.639 190.229 306.188C190.229 302.736 187.431 299.938 183.979 299.938C180.527 299.938 177.729 302.736 177.729 306.188C177.729 309.639 180.527 312.438 183.979 312.438Z" stroke="#262626" stroke-width="2" stroke-linecap="round" stroke-linejoin="round"/>
<path d="M192.812 321.271C196.264 321.271 199.062 318.473 199.062 315.021C199.062 311.569 196.264 308.771 192.812 308.771C189.361 308.771 186.562 311.569 186.562 315.021C186.562 318.473 189.361 321.271 192.812 321.271Z" stroke="#262626" stroke-width="2" stroke-linecap="round" stroke-linejoin="round"/>
<path d="M168.667 327.75C172.118 327.75 174.917 324.952 174.917 321.5C174.917 318.048 172.118 315.25 168.667 315.25C165.215 315.25 162.417 318.048 162.417 321.5C162.417 324.952 165.215 327.75 168.667 327.75Z" stroke="#262626" stroke-width="2" stroke-linecap="round" stroke-linejoin="round"/>
<path d="M177.5 336.583C180.952 336.583 183.75 333.785 183.75 330.333C183.75 326.882 180.952 324.083 177.5 324.083C174.048 324.083 171.25 326.882 171.25 330.333C171.25 333.785 174.048 336.583 177.5 336.583Z" stroke="#262626" stroke-width="2" stroke-linecap="round" stroke-linejoin="round"/>
<path d="M165.417 339.833C168.868 339.833 171.667 337.035 171.667 333.583C171.667 330.132 168.868 327.333 165.417 327.333C161.965 327.333 159.167 330.132 159.167 333.583C159.167 337.035 161.965 339.833 165.417 339.833Z" stroke="#262626" stroke-width="2" stroke-linecap="round" stroke-linejoin="round"/>
</g>
<defs>
<clipPath id="clip0_15_3">
<rect width="360" height="800" fill="white"/>
</clipPath>
</defs>
</svg>
